<mxfile host="Electron" modified="2020-11-11T12:45:06.466Z" agent="5.0 (X11; Linux x86_64) AppleWebKit/537.36 (KHTML, like Gecko) draw.io/13.3.9 Chrome/83.0.4103.119 Electron/9.0.5 Safari/537.36" etag="yBvWi6NhpmmhW3v-Bnoz" compressed="false" version="13.3.9" type="device">
  <diagram id="4eHWNVrZqjX9XK59E_AI" name="Page-1">
    <mxGraphModel dx="1038" dy="636" grid="1" gridSize="10" guides="0" tooltips="1" connect="1" arrows="1" fold="1" page="1" pageScale="1" pageWidth="850" pageHeight="1100" math="0" shadow="0">
      <root>
        <mxCell id="0" />
        <mxCell id="1" parent="0" />
        <mxCell id="eN5bZeI94P7dfTXeBn4Z-53" value="" style="verticalLabelPosition=bottom;verticalAlign=top;html=1;shape=mxgraph.basic.polygon;polyCoords=[[1,0],[1,0],[1,0],[1,0.5],[0,1],[0,1],[0,1],[0,0.5]];polyline=0;strokeWidth=1;fillColor=#f8cecc;strokeColor=none;" parent="1" vertex="1">
          <mxGeometry x="520" y="40" width="100" height="120" as="geometry" />
        </mxCell>
        <mxCell id="eN5bZeI94P7dfTXeBn4Z-54" value="" style="endArrow=none;dashed=1;html=1;strokeWidth=2;entryX=0;entryY=1;entryDx=0;entryDy=0;exitX=1;exitY=1;exitDx=0;exitDy=0;fillColor=#f8cecc;strokeColor=#b85450;" parent="1" source="eN5bZeI94P7dfTXeBn4Z-9" target="eN5bZeI94P7dfTXeBn4Z-13" edge="1">
          <mxGeometry width="50" height="50" relative="1" as="geometry">
            <mxPoint x="530" y="170" as="sourcePoint" />
            <mxPoint x="630" y="230" as="targetPoint" />
          </mxGeometry>
        </mxCell>
        <mxCell id="eN5bZeI94P7dfTXeBn4Z-55" value="" style="verticalLabelPosition=bottom;verticalAlign=top;html=1;shape=mxgraph.basic.polygon;polyCoords=[[1,0.5],[1,1],[1,1],[1,1],[0,0.5],[0,0],[0,0],[0,0]];polyline=0;strokeWidth=1;fillColor=#f8cecc;strokeColor=none;" parent="1" vertex="1">
          <mxGeometry x="520" y="100" width="100" height="120" as="geometry" />
        </mxCell>
        <mxCell id="eN5bZeI94P7dfTXeBn4Z-52" value="" style="verticalLabelPosition=bottom;verticalAlign=top;html=1;shape=mxgraph.basic.polygon;polyCoords=[[1,0.75],[1,1],[1,1],[1,1],[0,0.25],[0,0],[0,0],[0,0]];polyline=0;strokeWidth=1;fillColor=#d5e8d4;strokeColor=none;" parent="1" vertex="1">
          <mxGeometry x="520" y="80" width="100" height="80" as="geometry" />
        </mxCell>
        <mxCell id="eN5bZeI94P7dfTXeBn4Z-51" value="" style="verticalLabelPosition=bottom;verticalAlign=top;html=1;shape=mxgraph.basic.polygon;polyCoords=[[1,0],[1,0],[1,0],[1,0.25],[0,1],[0,1],[0,1],[0,0.75]];polyline=0;strokeWidth=1;fillColor=#d5e8d4;strokeColor=none;" parent="1" vertex="1">
          <mxGeometry x="520" y="20" width="100" height="80" as="geometry" />
        </mxCell>
        <mxCell id="eN5bZeI94P7dfTXeBn4Z-39" value="" style="rounded=0;whiteSpace=wrap;html=1;dashed=1;strokeWidth=2;strokeColor=#82b366;fillColor=#d5e8d4;" parent="1" vertex="1">
          <mxGeometry x="160" y="80" width="100" height="80" as="geometry" />
        </mxCell>
        <mxCell id="eN5bZeI94P7dfTXeBn4Z-1" value="rwx" style="rounded=0;whiteSpace=wrap;html=1;fillColor=#f5f5f5;strokeColor=#666666;fontColor=#333333;strokeWidth=1;" parent="1" vertex="1">
          <mxGeometry x="80" y="80" width="80" height="80" as="geometry" />
        </mxCell>
        <mxCell id="eN5bZeI94P7dfTXeBn4Z-2" value="-w-" style="rounded=0;whiteSpace=wrap;html=1;fillColor=#f5f5f5;strokeColor=#666666;fontColor=#333333;strokeWidth=1;" parent="1" vertex="1">
          <mxGeometry x="260" y="80" width="80" height="20" as="geometry" />
        </mxCell>
        <mxCell id="eN5bZeI94P7dfTXeBn4Z-3" value="r--" style="rounded=0;whiteSpace=wrap;html=1;fillColor=#f5f5f5;strokeColor=#666666;fontColor=#333333;strokeWidth=1;" parent="1" vertex="1">
          <mxGeometry x="260" y="100" width="80" height="20" as="geometry" />
        </mxCell>
        <mxCell id="eN5bZeI94P7dfTXeBn4Z-4" value="--x" style="rounded=0;whiteSpace=wrap;html=1;fillColor=#f5f5f5;strokeColor=#666666;fontColor=#333333;strokeWidth=1;" parent="1" vertex="1">
          <mxGeometry x="260" y="120" width="80" height="20" as="geometry" />
        </mxCell>
        <mxCell id="eN5bZeI94P7dfTXeBn4Z-5" value="---" style="rounded=0;whiteSpace=wrap;html=1;fillColor=#f5f5f5;strokeColor=#666666;fontColor=#333333;strokeWidth=1;" parent="1" vertex="1">
          <mxGeometry x="260" y="140" width="80" height="20" as="geometry" />
        </mxCell>
        <mxCell id="eN5bZeI94P7dfTXeBn4Z-6" value="Host Phy Mem 16K" style="text;html=1;align=center;verticalAlign=middle;resizable=0;points=[];autosize=1;" parent="1" vertex="1">
          <mxGeometry x="60" y="60" width="120" height="20" as="geometry" />
        </mxCell>
        <mxCell id="eN5bZeI94P7dfTXeBn4Z-7" value="Guest Mem 4*4K" style="text;html=1;align=center;verticalAlign=middle;resizable=0;points=[];autosize=1;" parent="1" vertex="1">
          <mxGeometry x="245" y="60" width="110" height="20" as="geometry" />
        </mxCell>
        <mxCell id="eN5bZeI94P7dfTXeBn4Z-9" value="rwx&amp;nbsp; &amp;nbsp; s" style="rounded=0;whiteSpace=wrap;html=1;fillColor=#f5f5f5;strokeColor=#666666;fontColor=#333333;" parent="1" vertex="1">
          <mxGeometry x="440" y="80" width="80" height="80" as="geometry" />
        </mxCell>
        <mxCell id="eN5bZeI94P7dfTXeBn4Z-10" value="-w-&amp;nbsp; &amp;nbsp; s" style="rounded=0;whiteSpace=wrap;html=1;fillColor=#f5f5f5;strokeColor=#666666;fontColor=#333333;" parent="1" vertex="1">
          <mxGeometry x="620" y="20" width="80" height="20" as="geometry" />
        </mxCell>
        <mxCell id="eN5bZeI94P7dfTXeBn4Z-11" value="r--&amp;nbsp; &amp;nbsp; p" style="rounded=0;whiteSpace=wrap;html=1;fillColor=#f5f5f5;strokeColor=#666666;fontColor=#333333;" parent="1" vertex="1">
          <mxGeometry x="620" y="40" width="80" height="20" as="geometry" />
        </mxCell>
        <mxCell id="eN5bZeI94P7dfTXeBn4Z-12" value="--x&amp;nbsp; &amp;nbsp; p" style="rounded=0;whiteSpace=wrap;html=1;fillColor=#f5f5f5;strokeColor=#666666;fontColor=#333333;" parent="1" vertex="1">
          <mxGeometry x="620" y="60" width="80" height="20" as="geometry" />
        </mxCell>
        <mxCell id="eN5bZeI94P7dfTXeBn4Z-13" value="---&amp;nbsp; &amp;nbsp; p" style="rounded=0;whiteSpace=wrap;html=1;fillColor=#f5f5f5;strokeColor=#666666;fontColor=#333333;" parent="1" vertex="1">
          <mxGeometry x="620" y="80" width="80" height="20" as="geometry" />
        </mxCell>
        <mxCell id="eN5bZeI94P7dfTXeBn4Z-14" value="Host Phy Mem 16K" style="text;html=1;align=center;verticalAlign=middle;resizable=0;points=[];autosize=1;" parent="1" vertex="1">
          <mxGeometry x="420" y="60" width="120" height="20" as="geometry" />
        </mxCell>
        <mxCell id="eN5bZeI94P7dfTXeBn4Z-16" value="-w-&amp;nbsp; &amp;nbsp; s" style="rounded=0;whiteSpace=wrap;html=1;fillColor=#f5f5f5;strokeColor=#666666;fontColor=#333333;" parent="1" vertex="1">
          <mxGeometry x="620" y="140" width="80" height="20" as="geometry" />
        </mxCell>
        <mxCell id="eN5bZeI94P7dfTXeBn4Z-17" value="not-care&amp;nbsp; &amp;nbsp;&amp;nbsp;p" style="rounded=0;whiteSpace=wrap;html=1;fillColor=#f5f5f5;strokeColor=#666666;fontColor=#333333;" parent="1" vertex="1">
          <mxGeometry x="620" y="160" width="80" height="20" as="geometry" />
        </mxCell>
        <mxCell id="eN5bZeI94P7dfTXeBn4Z-18" value="not-care&amp;nbsp; &amp;nbsp;&amp;nbsp;p" style="rounded=0;whiteSpace=wrap;html=1;fillColor=#f5f5f5;strokeColor=#666666;fontColor=#333333;" parent="1" vertex="1">
          <mxGeometry x="620" y="180" width="80" height="20" as="geometry" />
        </mxCell>
        <mxCell id="eN5bZeI94P7dfTXeBn4Z-19" value="not-care&amp;nbsp; &amp;nbsp; p" style="rounded=0;whiteSpace=wrap;html=1;fillColor=#f5f5f5;strokeColor=#666666;fontColor=#333333;" parent="1" vertex="1">
          <mxGeometry x="620" y="200" width="80" height="20" as="geometry" />
        </mxCell>
        <mxCell id="eN5bZeI94P7dfTXeBn4Z-21" value="&lt;b&gt;Abbr&lt;/b&gt;: r: readable, w: writable, x: executable, s: shared, p: private" style="text;html=1;align=left;verticalAlign=middle;resizable=0;points=[];autosize=1;" parent="1" vertex="1">
          <mxGeometry x="80" y="210" width="360" height="20" as="geometry" />
        </mxCell>
        <mxCell id="eN5bZeI94P7dfTXeBn4Z-29" value="" style="endArrow=none;dashed=1;html=1;strokeWidth=2;entryX=0;entryY=0;entryDx=0;entryDy=0;exitX=1;exitY=0;exitDx=0;exitDy=0;fillColor=#d5e8d4;strokeColor=#82b366;" parent="1" source="eN5bZeI94P7dfTXeBn4Z-1" target="eN5bZeI94P7dfTXeBn4Z-2" edge="1">
          <mxGeometry width="50" height="50" relative="1" as="geometry">
            <mxPoint x="360" y="250" as="sourcePoint" />
            <mxPoint x="410" y="200" as="targetPoint" />
          </mxGeometry>
        </mxCell>
        <mxCell id="eN5bZeI94P7dfTXeBn4Z-30" value="" style="endArrow=none;dashed=1;html=1;strokeWidth=2;entryX=0;entryY=1;entryDx=0;entryDy=0;exitX=1;exitY=1;exitDx=0;exitDy=0;fillColor=#d5e8d4;strokeColor=#82b366;" parent="1" source="eN5bZeI94P7dfTXeBn4Z-1" target="eN5bZeI94P7dfTXeBn4Z-5" edge="1">
          <mxGeometry width="50" height="50" relative="1" as="geometry">
            <mxPoint x="170" y="90" as="sourcePoint" />
            <mxPoint x="270" y="90" as="targetPoint" />
          </mxGeometry>
        </mxCell>
        <mxCell id="eN5bZeI94P7dfTXeBn4Z-23" value="l1_map (QEMU page table)" style="rounded=0;whiteSpace=wrap;html=1;rotation=90;fillColor=#f5f5f5;strokeColor=#666666;fontColor=#333333;strokeWidth=1;" parent="1" vertex="1">
          <mxGeometry x="140" y="110" width="160" height="20" as="geometry" />
        </mxCell>
        <mxCell id="eN5bZeI94P7dfTXeBn4Z-31" value="" style="endArrow=none;dashed=1;html=1;strokeWidth=2;entryX=0;entryY=0;entryDx=0;entryDy=0;exitX=1;exitY=0;exitDx=0;exitDy=0;fillColor=#d5e8d4;strokeColor=#82b366;" parent="1" source="eN5bZeI94P7dfTXeBn4Z-9" target="eN5bZeI94P7dfTXeBn4Z-10" edge="1">
          <mxGeometry width="50" height="50" relative="1" as="geometry">
            <mxPoint x="440" y="230" as="sourcePoint" />
            <mxPoint x="490" y="180" as="targetPoint" />
          </mxGeometry>
        </mxCell>
        <mxCell id="eN5bZeI94P7dfTXeBn4Z-34" value="" style="endArrow=none;dashed=1;html=1;strokeWidth=2;entryX=0;entryY=1;entryDx=0;entryDy=0;exitX=1;exitY=1;exitDx=0;exitDy=0;fillColor=#f8cecc;strokeColor=#b85450;" parent="1" source="eN5bZeI94P7dfTXeBn4Z-9" target="eN5bZeI94P7dfTXeBn4Z-19" edge="1">
          <mxGeometry width="50" height="50" relative="1" as="geometry">
            <mxPoint x="530" y="90" as="sourcePoint" />
            <mxPoint x="630" y="150" as="targetPoint" />
          </mxGeometry>
        </mxCell>
        <mxCell id="eN5bZeI94P7dfTXeBn4Z-33" value="" style="endArrow=none;dashed=1;html=1;strokeWidth=2;entryX=0;entryY=0;entryDx=0;entryDy=0;exitX=1;exitY=0;exitDx=0;exitDy=0;fillColor=#d5e8d4;strokeColor=#82b366;" parent="1" source="eN5bZeI94P7dfTXeBn4Z-9" target="eN5bZeI94P7dfTXeBn4Z-16" edge="1">
          <mxGeometry width="50" height="50" relative="1" as="geometry">
            <mxPoint x="530" y="170" as="sourcePoint" />
            <mxPoint x="630" y="110" as="targetPoint" />
          </mxGeometry>
        </mxCell>
        <mxCell id="eN5bZeI94P7dfTXeBn4Z-27" value="l1_map (QEMU page table)" style="rounded=0;whiteSpace=wrap;html=1;rotation=90;fillColor=#f5f5f5;strokeColor=#666666;fontColor=#333333;" parent="1" vertex="1">
          <mxGeometry x="500" y="110" width="160" height="20" as="geometry" />
        </mxCell>
        <mxCell id="dNMB-qGA8otSjd0nLQyJ-1" value="guest_base" style="rounded=0;whiteSpace=wrap;html=1;rotation=90;fillColor=#f5f5f5;strokeColor=#666666;fontColor=#333333;strokeWidth=1;" parent="1" vertex="1">
          <mxGeometry x="120" y="110" width="160" height="20" as="geometry" />
        </mxCell>
        <mxCell id="dNMB-qGA8otSjd0nLQyJ-2" value="Process 1" style="text;html=1;align=center;verticalAlign=middle;resizable=0;points=[];autosize=1;rotation=90;" parent="1" vertex="1">
          <mxGeometry x="320" y="110" width="70" height="20" as="geometry" />
        </mxCell>
        <mxCell id="dNMB-qGA8otSjd0nLQyJ-4" value="Process 1" style="text;html=1;align=center;verticalAlign=middle;resizable=0;points=[];autosize=1;rotation=90;" parent="1" vertex="1">
          <mxGeometry x="680" y="50" width="70" height="20" as="geometry" />
        </mxCell>
        <mxCell id="dNMB-qGA8otSjd0nLQyJ-5" value="Process 2" style="text;html=1;align=center;verticalAlign=middle;resizable=0;points=[];autosize=1;rotation=90;" parent="1" vertex="1">
          <mxGeometry x="680" y="170" width="70" height="20" as="geometry" />
        </mxCell>
        <mxCell id="dNMB-qGA8otSjd0nLQyJ-6" value="Guest Mem 4*4K" style="text;html=1;align=center;verticalAlign=middle;resizable=0;points=[];autosize=1;" parent="1" vertex="1">
          <mxGeometry x="605" width="110" height="20" as="geometry" />
        </mxCell>
        <mxCell id="dNMB-qGA8otSjd0nLQyJ-7" value="Guest Mem 4*4K" style="text;html=1;align=center;verticalAlign=middle;resizable=0;points=[];autosize=1;" parent="1" vertex="1">
          <mxGeometry x="605" y="120" width="110" height="20" as="geometry" />
        </mxCell>
        <mxCell id="dNMB-qGA8otSjd0nLQyJ-8" value="&lt;b&gt;The &lt;font color=&quot;#b20000&quot;&gt;red&lt;/font&gt; region should not exist. There is no simple solutions.&lt;/b&gt;" style="text;html=1;align=left;verticalAlign=middle;resizable=0;points=[];autosize=1;" parent="1" vertex="1">
          <mxGeometry x="80" y="10" width="370" height="20" as="geometry" />
        </mxCell>
        <mxCell id="g8qH1Yd125s3kjtphvbI-1" value="guest_base" style="rounded=0;whiteSpace=wrap;html=1;rotation=90;fillColor=#f5f5f5;strokeColor=#666666;fontColor=#333333;strokeWidth=1;" parent="1" vertex="1">
          <mxGeometry x="480" y="110" width="160" height="20" as="geometry" />
        </mxCell>
      </root>
    </mxGraphModel>
  </diagram>
</mxfile>
